# xmcd CD database file
#
# Track frame offsets:
#	150
#	14032
#	27787
#	42972
#	51505
#	65157
#	73287
#	87610
#	99550
#	110417
#	118385
#	123737
#	137377
#	149980
#	164067
#
# Disc length: 2369 seconds
#
# Revision: 0
# Processed by: cddbd v1.5.1PL0 Copyright (c) Steve Scherf et al.
# Submitted via: CDex 1.60beta1-cs1
#
DISCID=fa093f0f
DTITLE=grupo folclórico luiz de camões (sociedade portuguesa de juiz de fora mg brasil) - cantares de norte ao sul de portugal
DYEAR=1900
DGENRE=folclore
TTITLE0=senhora da boa morte
TTITLE1=tirana
TTITLE2=vira de são priz
TTITLE3=rosinha
TTITLE4=água da fontela
TTITLE5=vira da praia de âncora (instrumental)
TTITLE6=o mar enrola na area
TTITLE7=meadela meadela
TTITLE8=vira de palmeira
TTITLE9=raparigas portuguesas
TTITLE10=fandangado (instrumental)
TTITLE11=vira de tuizelo
TTITLE12=vinho do dão
TTITLE13=regadinho
TTITLE14=madrugada
EXTD=
EXTT0=
EXTT1=
EXTT2=
EXTT3=
EXTT4=
EXTT5=
EXTT6=
EXTT7=
EXTT8=
EXTT9=
EXTT10=
EXTT11=
EXTT12=
EXTT13=
EXTT14=
PLAYORDER=
